<svg width="17" height="14" viewBox="0 0 17 14" fill="none" xmlns="http://www.w3.org/2000/svg">
<path fill-rule="evenodd" clip-rule="evenodd" d="M7.8732 13.0801H9.13113C9.41131 12.7598 9.74678 12.4827 10.1261 12.2614C11.6045 11.3991 14.131 11.3523 15.5125 12.3699H16H17V11.3699V3.16992C17 3.16992 16.2031 0.919922 12.58 0.919922C10.7054 0.919922 9.67836 1.52228 9.12372 2.10367C8.73536 2.51075 8.57858 2.90755 8.52455 3.08008H8.47545C8.42143 2.90755 8.26465 2.51075 7.87629 2.10367C7.32165 1.52228 6.29466 0.919922 4.42 0.919922C0.796875 0.919922 0 3.16992 0 3.16992V11.3599V12.3599H1H1.4875C2.87023 11.3414 5.39887 11.3901 6.87623 12.2555C7.25677 12.4784 7.59294 12.7576 7.8732 13.0801ZM9 3.36892V11.8257C9.19522 11.6686 9.40318 11.5254 9.62225 11.3976C10.5494 10.8568 11.7368 10.6019 12.8634 10.6107C13.8691 10.6186 14.9441 10.8381 15.8152 11.3699H16V3.3969C15.991 3.38138 15.981 3.36466 15.97 3.34686C15.8839 3.20869 15.7344 3.00821 15.4955 2.80214C15.035 2.40486 14.1653 1.91992 12.58 1.91992C10.9938 1.91992 10.2397 2.40361 9.88555 2.75491C9.69739 2.94153 9.59043 3.12197 9.53253 3.24478C9.50353 3.30628 9.48724 3.35254 9.47967 3.37635C9.4759 3.38818 9.47439 3.39416 9.47461 3.39332L9.47619 3.38671L9.47784 3.37927L9.47886 3.37446L9.47942 3.37178L9.47971 3.37037C9.47973 3.37025 9.47976 3.37012 9.47447 3.36892H9ZM8 3.36892H7.52553C7.52025 3.37012 7.52027 3.37025 7.5203 3.37037L7.52059 3.37178L7.52115 3.37446L7.52217 3.37927L7.52382 3.38671L7.5254 3.39332C7.52561 3.39416 7.5241 3.38818 7.52034 3.37635C7.51277 3.35254 7.49647 3.30628 7.46748 3.24478C7.40958 3.12197 7.30262 2.94153 7.11446 2.75491C6.76028 2.40361 6.0062 1.91992 4.42 1.91992C2.83472 1.91992 1.96506 2.40486 1.50449 2.80214C1.26559 3.00821 1.11608 3.20869 1.03006 3.34686C1.01898 3.36466 1.00898 3.38138 1 3.3969V11.3599H1.18483C2.05673 10.8276 3.13285 10.6084 4.13934 10.6013C5.26668 10.5933 6.45473 10.8497 7.38168 11.3927C7.59935 11.5202 7.80598 11.6629 8 11.8193V3.36892Z" fill="black" fill-opacity="0.8"/>
</svg>
