<svg width="16" height="16" viewBox="0 0 16 16" fill="none" xmlns="http://www.w3.org/2000/svg">
<path fill-rule="evenodd" clip-rule="evenodd" d="M11.1034 7.05172C11.1034 9.01329 9.51329 10.6034 7.55172 10.6034C5.59016 10.6034 4 9.01329 4 7.05172C4 5.09016 5.59016 3.5 7.55172 3.5C9.51329 3.5 11.1034 5.09016 11.1034 7.05172ZM10.3972 10.6046C9.61787 11.2296 8.62846 11.6034 7.55172 11.6034C5.03788 11.6034 3 9.56557 3 7.05172C3 4.53788 5.03788 2.5 7.55172 2.5C10.0656 2.5 12.1034 4.53788 12.1034 7.05172C12.1034 8.12858 11.7295 9.1181 11.1044 9.8975L14.3535 13.1467L13.6464 13.8538L10.3972 10.6046Z" fill="black" fill-opacity="0.8"/>
</svg>
